<svg width="293" height="276" viewBox="0 0 293 276" fill="none" xmlns="http://www.w3.org/2000/svg">
<g clip-path="url(#clip0_954_37782)">
<path d="M129.467 39.4473L127.292 43.3296C125.44 46.6382 123.047 49.6138 120.212 52.1331L118.704 53.4736C116.197 55.7021 114.177 58.4245 112.772 61.4701V61.4701M146.161 82.0721L157.883 142.812" stroke="#4295F0" stroke-width="2" stroke-linecap="round" stroke-linejoin="round"/>
<path d="M386.991 494.821L368.223 388.941C368.185 388.723 368.151 388.541 368.107 388.324C367.236 383.978 356.704 331.957 346.498 303.72C338.611 281.9 323.41 266.904 301.742 258.609C286.348 252.716 276.159 255.868 259.827 253.636C237.413 250.573 225.262 244.483 202.639 244.401C183.334 244.33 172.049 245.042 153.621 250.794C124.349 259.93 109.998 272.507 87.9073 293.774C69.1398 311.842 60.6558 324.415 47.7689 347.055C36.2087 367.365 30.0105 379.445 24.3252 402.112M24.3252 402.112C22.1278 410.874 21.5413 415.935 20.0628 424.846C14.2981 459.587 20.0628 480.613 12.6034 514.713C11.6562 519.043 8.69613 525.369 8.69613 525.369M24.3252 402.112C24.3252 402.112 28.4725 406.461 30.719 409.572C40.0795 422.532 40.4943 433.061 41.7304 449C42.2237 455.362 41.7304 465.339 41.7304 465.339M41.7304 465.339L43.5064 521.107L43.5064 525.369M41.7304 465.339C41.7304 465.339 45.6324 459.404 47.7689 455.393C57.8007 436.564 49.5274 420.787 59.8459 402.112C64.3405 393.978 72.9293 384.397 78.0602 379.005C80.7542 376.175 82.8344 372.808 84 369.078V369.078" stroke="#4295F0" stroke-width="4" stroke-linecap="round" stroke-linejoin="round"/>
<path d="M68.0156 315.087V315.087C73.1008 315.087 78.0456 313.517 82.2813 310.703C91.826 304.362 110.129 292.764 124.494 287.026C126.116 286.378 127.646 285.722 129.111 285.073M186.655 287.026C186.655 287.026 169.539 277.52 157.528 277.08C145.81 276.651 138.943 280.716 129.111 285.073M186.655 287.026C186.655 287.026 166.408 284.184 152.2 289.867M186.655 287.026C186.655 287.026 208.612 294.822 219.138 307.272M129.111 285.073C129.111 285.073 119.348 292.757 114.193 298.747C103.832 310.784 95.7218 334.979 95.7218 334.979M219.138 307.272C220.66 309.073 221.943 310.97 222.886 312.956C229.492 326.864 224.614 337.083 222.886 352.384C221.83 361.731 220.079 368.751 218.002 375.827M219.138 307.272L220.078 295.629C220.288 293.026 221.238 290.538 222.816 288.457V288.457C226.097 284.133 231.622 282.156 236.901 283.416L241.718 284.566C243.131 284.903 244.506 285.384 245.821 286.001L272.97 298.747M218.002 375.827C216.134 382.19 214.002 388.598 211.874 396.785C206.878 416.008 203.92 427.239 198.603 445.448M218.002 375.827L232.685 380.651C235.142 381.458 237.687 381.964 240.266 382.158L307.07 387.194M307.07 387.194L312.043 352.384L315.595 322.902M307.07 387.194L304.583 407.796M304.583 407.796L305.412 407.582C312.026 405.875 317.921 402.096 322.234 396.798L328.027 389.68M304.583 407.796L286.113 445.448M286.113 445.448L332.645 458.946M286.113 445.448L258.881 469.247M243.843 482.389L328.027 514.713M243.843 482.389L240.517 488.154C239.188 490.459 238.151 492.92 237.43 495.482L230.223 521.107M243.843 482.389L258.881 469.247M228.924 525.725L230.223 521.107M230.223 521.107L179.877 504.412M179.877 504.412C185.218 488.416 192.608 465.852 197.666 448.645C197.987 447.554 198.299 446.49 198.603 445.448M179.877 504.412C179.536 505.433 179.203 506.428 178.88 507.392C175.761 516.702 165.595 521.581 156.356 518.256V518.256C150.292 516.072 145.906 510.747 144.926 504.377L144.642 502.533C143.593 495.714 139.221 489.863 132.979 486.926L118.81 480.258M258.881 469.247L215.351 446.783C210.173 444.111 204.139 443.63 198.603 445.448V445.448" stroke="#4295F0" stroke-width="4" stroke-linecap="round" stroke-linejoin="round"/>
<path d="M81.8854 231.039L83.4047 229.097C86.1369 225.606 89.5958 222.751 93.5416 220.731L170.88 181.126C174.034 179.511 177.433 178.431 180.941 177.93L185.597 177.265C190.493 176.565 195.485 177.053 200.153 178.687L281.673 197.605C283.446 198.016 285.18 198.578 286.857 199.284L287.603 199.598C289.917 200.573 292.108 201.816 294.131 203.302L308.491 213.852L332.092 231.068C336.417 234.222 339.881 238.411 342.168 243.251L359.996 280.986L377.61 322.3C378.884 325.288 379.695 328.453 380.017 331.685L385.215 383.996L386.636 410.637L386.636 435.469C386.636 438.086 386.957 440.692 387.592 443.23L391.719 459.741C392.354 462.279 392.675 464.886 392.675 467.502L392.675 474.164C392.675 475.143 392.815 476.116 393.091 477.055L395.413 484.949C395.851 486.44 397.469 487.239 398.919 486.681C400.052 486.245 400.747 485.098 400.607 483.892L396.227 446.158L392.675 413.834L392.675 385.772L387.107 333.042C386.795 330.084 386.072 327.185 384.959 324.428L378.466 308.337L366.389 277.079L354.883 250.129C353.563 247.039 351.766 244.177 349.556 241.646L334.869 224.827C332.226 221.8 329.036 219.298 325.467 217.452L315.78 212.441C312.138 210.558 308.893 207.992 306.22 204.884L300.666 198.426C297.024 194.191 291.893 191.52 286.335 190.964C285.006 190.831 283.691 190.576 282.408 190.201L250.237 180.818L203.239 171.485C201.186 171.078 199.099 170.872 197.006 170.872L186.552 170.872C181.939 170.872 177.381 171.87 173.189 173.796L98.9166 207.93C97.028 208.798 95.2285 209.847 93.5436 211.064L87.0725 215.738C84.5934 217.528 81.6904 218.641 78.6498 218.967L77.9676 219.04C74.9529 219.363 71.9102 218.785 69.2245 217.378L68.4806 216.988C66.7753 216.095 64.8788 215.628 62.9537 215.628L61.1428 215.628C59.3921 215.628 57.7024 216.271 56.3939 217.434C55.6258 218.117 55.014 218.957 54.6001 219.898L52.5524 224.551C51.7335 226.413 50.7302 228.187 49.5577 229.848L38.5335 245.466L23.5196 270.271C22.6373 271.729 21.6399 273.114 20.537 274.413L9.3687 287.567C7.2748 290.033 5.567 292.802 4.30348 295.781L-3.7361 314.731L-15.8131 356.645L-19.7204 368.012L-24.1748 381.637C-25.2243 384.847 -25.7589 388.203 -25.7589 391.581L-25.7589 401.757L-26.8245 422.003L-26.8245 429.108L-26.8245 434.452C-26.8245 435.386 -26.9203 436.317 -27.1102 437.232L-34.4295 472.473C-35.0187 475.31 -31.5593 477.178 -29.5105 475.129C-29.1471 474.765 -28.8862 474.313 -28.7541 473.816L-19.3604 438.509C-18.8959 436.763 -18.8276 434.935 -19.1605 433.159C-19.5281 431.199 -19.4062 429.178 -18.8056 427.276L-18.5668 426.52C-17.9222 424.479 -17.7136 422.325 -17.9543 420.199L-19.2917 408.385C-19.5765 405.87 -19.5617 403.329 -19.2477 400.817L-18.2298 392.674C-17.8055 389.279 -16.8394 385.974 -15.3685 382.885L-12.0344 375.883C-11.0143 373.741 -10.485 371.399 -10.485 369.026C-10.485 366.492 -9.88125 363.995 -8.72371 361.74L-3.7361 352.028L18.8132 293.002C19.841 290.311 21.8924 288.137 24.5186 286.956C26.4772 286.074 28.1314 284.634 29.2735 282.815L33.2579 276.469C35.7956 272.428 39.2051 269.005 43.2367 266.452L54.3175 259.434C57.0403 257.709 60.0079 256.406 63.12 255.568L73.3261 252.821C75.6272 252.201 77.6247 250.766 78.9465 248.783C80.3649 246.656 80.8979 244.059 80.4323 241.545L79.949 238.935C79.5801 236.943 79.8319 234.886 80.6702 233.042C80.9945 232.328 81.4024 231.656 81.8854 231.039Z" fill="#4295F0"/>
<path fill-rule="evenodd" clip-rule="evenodd" d="M187.556 136.306L186.901 134.733C185.832 132.167 185.802 129.286 186.819 126.699L191.37 115.113C192.483 112.281 194.015 109.633 195.916 107.257C198.706 103.769 202.232 100.941 206.241 98.974L216.457 93.9627C218.116 93.1488 219.939 92.7256 221.787 92.7256C225.201 92.7256 228.457 91.2838 230.751 88.7556L244.553 73.5445L259.203 59.8505C260.328 58.7986 261.376 57.6668 262.338 56.4639L267.415 50.1181C268.747 48.4531 269.909 46.6592 270.884 44.763L271.625 43.3217C274.361 38.002 275.551 32.0219 275.06 26.0601L274.032 13.5695C273.569 7.94943 274.599 2.3069 277.019 -2.78674L280.074 -9.21872L283.062 -14.1984C283.91 -15.6126 284.648 -17.0903 285.269 -18.6182L288.954 -27.6895L295.419 -39.3267C295.838 -40.0811 296.058 -40.9298 296.058 -41.7927C296.058 -44.5972 293.785 -46.8707 290.98 -46.8707L289.771 -46.8707C286.65 -46.8707 284.002 -44.5815 283.55 -41.4936L282.889 -36.9812C282.451 -33.9853 280.855 -31.2809 278.444 -29.4489L276.791 -28.1922C274.519 -26.4652 272.728 -24.1832 271.592 -21.565L266.998 -10.9775C265.776 -8.16201 264.965 -5.18535 264.591 -2.13906L263.152 9.57916C262.831 12.1927 262.834 14.8359 263.161 17.4488L263.979 23.9939C264.745 30.1198 263.606 36.333 260.717 41.7892C259.42 44.24 257.789 46.4995 255.873 48.5035L235.318 69.9924L231.375 73.4269C226.76 77.4465 221.089 80.0584 215.034 80.9528L198.246 83.4329C194.804 83.9413 191.468 85.0077 188.369 86.5899L182.321 89.6786C178.385 91.6882 174.076 92.8609 169.665 93.1229L140.478 94.8569L103.001 94.8569C99.8236 94.8569 96.6636 94.3835 93.6253 93.4524L87.4973 91.5745C80.1975 89.3375 73.938 84.5641 69.8491 78.1163L66.9499 73.5444L52.7417 52.9424L50.6793 49.1927C49.4538 46.9645 48.5002 44.5972 47.8391 42.1417C46.853 38.4788 45.2188 35.0221 43.014 31.9354L30.984 15.0934C29.393 12.866 28.0943 10.4436 27.1199 7.88564L23.8045 -0.81733C23.2053 -2.39015 22.483 -3.91325 21.6442 -5.37245L-1.89461 -46.3235C-2.5944 -47.541 -3.89149 -48.2915 -5.2957 -48.2915C-8.00233 -48.2915 -9.8958 -45.6153 -8.99498 -43.063L-4.89497 -31.4462C-4.59691 -30.6018 -4.20998 -29.7914 -3.74065 -29.0287L-1.01796 -24.6044C0.478408 -22.1728 1.64259 -19.5519 2.44368 -16.8114L5.57124 -6.11173C7.15272 -0.701441 10.1352 4.19513 14.217 8.08253L19.7658 13.3671C21.8475 15.3497 23.6355 17.6191 25.0758 20.107L25.542 20.9122C26.3856 22.3693 27.393 23.7253 28.5446 24.9536C30.9083 27.475 32.6477 30.5156 33.6228 33.8312L38.0407 48.8518C38.8392 51.5669 39.9944 54.1641 41.476 56.5753L55.674 79.6819C56.7671 81.4608 58.4152 82.8307 60.3639 83.5802C61.4306 83.9905 62.4146 84.5896 63.2688 85.3489L68.3994 89.9094C70.5024 91.7787 72.3496 93.9172 73.8933 96.2695L74.9695 97.9094C77.6393 101.978 81.2017 105.383 85.3858 107.868L85.6928 108.05C88.8041 109.897 92.2062 111.204 95.7543 111.913L103.111 113.385C105.283 113.819 107.404 114.478 109.44 115.351L123.783 121.497L140.478 129.312L146.157 132.467C148.752 133.909 151.535 134.982 154.426 135.657L158.053 136.503C159.831 136.918 161.57 137.484 163.251 138.195L169.96 141.034L177.858 145.18C181.322 146.999 185.606 145.618 187.356 142.118C188.264 140.302 188.337 138.18 187.556 136.306ZM193.404 94.8569L196.245 99.4746L189.496 110.841L187.72 115.814L178.84 127.536L170.315 130.378L146.871 127.536L111.351 113.328L90.7488 104.092L92.88 98.0537L100.695 96.2777L111.351 98.0537L124.493 98.0537L137.991 98.0537L143.675 99.4746L150.068 98.0537L160.725 99.4746L167.829 98.0537L171.736 98.0537L185.234 94.8569L191.983 94.8569L193.404 94.8569Z" fill="#4295F0"/>
<path d="M415.763 229.127L403.318 212.533C400.277 208.479 396.476 205.056 392.126 202.457L367.81 187.923L294.275 146.743C290.054 144.38 285.431 142.822 280.64 142.15L272.871 141.059C269.401 140.572 265.881 140.555 262.406 141.008L218.623 146.719L164.353 154.193C161.055 154.647 157.697 154.152 154.671 152.765V152.765C152.114 151.593 149.312 151.055 146.503 151.195L82.862 154.377C76.1566 154.713 69.4782 153.311 63.4731 150.309L49.0744 143.109C45.3857 141.265 41.4279 140.017 37.3485 139.413L25.8819 137.714C18.5994 136.635 11.1602 137.64 4.42454 140.611L-4.7268 144.649C-7.84179 146.023 -10.7634 147.799 -13.4172 149.932L-40.6943 171.856C-45.1287 175.42 -50.2893 177.971 -55.8139 179.329L-90.7618 187.923" stroke="#4295F0" stroke-width="11" stroke-linecap="round" stroke-linejoin="round"/>
<path d="M271.194 138.55L288.785 127.493C293.576 124.481 298.966 122.548 304.58 121.828L309.912 121.145M309.912 121.145L317.695 98.105C318.421 95.9568 319.504 93.9466 320.899 92.1591V92.1591C326.39 85.1238 335.856 82.5407 344.16 85.8118L348.117 87.3706C351.715 88.7883 355.613 89.2761 359.451 88.7888L363.237 88.308C370.841 87.3424 378.204 91.3687 381.495 98.2906V98.2906C384.421 104.445 383.563 111.731 379.288 117.038L375.98 121.145M309.912 121.145V121.145C307.029 130.409 311.164 140.411 319.747 144.935L346.226 158.893C349.236 160.48 352.025 162.453 354.523 164.764L371.946 180.88C376.31 184.917 382.697 185.879 388.057 183.306V183.306M401.2 206.395L402.05 204.524C404.931 198.186 410.075 193.153 416.474 190.41V190.41" stroke="#4295F0" stroke-width="4" stroke-linecap="round" stroke-linejoin="round"/>
<path d="M228.569 116.527L262.425 99.4523C267.041 97.1242 271.148 93.9016 274.507 89.9719L288.244 73.9025L296.547 61.6926C299.045 58.0193 302.152 54.7998 305.734 52.1729L310.977 48.3276M321.633 40.5131L355.733 51.8797L381.308 63.6015M321.633 40.5131L320.83 38.4546C317.668 30.3512 317.342 21.436 319.476 13.0033C321.88 3.50263 324.764 -9.44511 325.541 -19.5169C326.362 -30.1665 325.541 -46.8678 325.541 -46.8678M321.633 40.5131L310.977 48.3276M381.308 63.6015L417.184 93.7941M381.308 63.6015L343.811 39.7095C342.058 38.5923 340.456 37.2531 339.045 35.7254V35.7254C334.93 31.267 332.645 25.4221 332.645 19.3546L332.645 15.4361C332.645 12.2778 333.09 9.13671 333.864 6.07462C335.427 -0.110854 337.979 -11.2813 338.328 -19.5169C338.818 -31.0733 335.486 -48.999 335.486 -48.999M310.977 48.3276V48.3276C314.191 53.3777 319.07 57.1449 324.768 58.9766L355.733 68.9296" stroke="#4295F0" stroke-width="4" stroke-linecap="round" stroke-linejoin="round"/>
<path d="M61.9772 41.578L87.8995 68.0963C91.1927 71.4652 95.0691 74.2095 99.3408 76.1963L108.154 80.2956M108.154 80.2956L133.729 83.8476V83.8476C141.331 83.8476 148.72 81.3398 154.751 76.713L164.159 69.4965C168.91 65.8518 172.758 61.1622 175.404 55.7909L183.458 39.4468M108.154 80.2956L108.154 78.982C108.154 72.4124 110 65.975 113.482 60.404V60.404M183.458 39.4468L167.923 37.8933C159.559 37.0569 151.654 33.5079 145.451 27.8366V27.8366M183.458 39.4468L198.821 33.8135C202.762 32.3688 206.443 30.2976 209.723 27.6798L236.851 6.02948C240.031 3.49138 242.459 0.133663 243.872 -3.68196V-3.68196C244.793 -6.16784 245.264 -8.79763 245.264 -11.4485L245.264 -14.9119C245.264 -18.4396 245.743 -21.951 246.687 -25.35L247.393 -27.8933C248.337 -31.2923 248.816 -34.8037 248.816 -38.3314L248.816 -46.5132M102.826 -46.5133L111.785 -27.9988C112.914 -25.6657 114.272 -23.451 115.84 -21.3874L130.371 -2.2683C132.598 0.662525 134.4 3.89394 135.721 7.32976L141.227 21.6448C142.136 24.0082 143.582 26.128 145.451 27.8366V27.8366M145.451 27.8366L139.706 30.7393C135.335 32.9484 131.665 36.3329 129.111 40.5124V40.5124M145.451 27.8366L158.593 20.976L176.213 8.64267C178.667 6.92484 180.915 4.93001 182.912 2.69762L185.663 -0.376853C189.816 -5.0184 192.797 -10.5871 194.356 -16.6169L195.112 -19.5384C196.56 -25.1377 196.744 -30.9889 195.652 -36.6684L193.759 -46.5133" stroke="#4295F0" stroke-width="4" stroke-linecap="round" stroke-linejoin="round"/>
<path d="M10.8274 150.271L14.6679 152.618C16.3376 153.639 18.2566 154.179 20.2134 154.179V154.179C21.7523 154.179 23.2728 153.845 24.6701 153.2L24.8581 153.113C26.3792 152.411 28.0345 152.047 29.7098 152.047L37.2286 152.047C41.1033 152.047 44.6735 154.148 46.5552 157.535V157.535C48.0076 160.149 48.2839 163.29 47.3382 166.127V166.127C46.2745 169.318 43.7776 171.877 40.6014 172.985L35.1366 174.892C31.9934 175.988 28.6471 176.378 25.3361 176.033L13.3139 174.781" stroke="#4295F0" stroke-width="2" stroke-linecap="round" stroke-linejoin="round"/>
<path d="M21.4836 134.998L14.4637 117.718C12.9951 114.103 10.9922 110.729 8.5221 107.708L-49.9129 36.2505L-64.8942 18.5941C-68.1373 14.7718 -70.6132 10.3602 -72.1862 5.60064L-82.5182 -25.6602C-83.2761 -27.9535 -84.2455 -30.1713 -85.4137 -32.2853L-91.1169 -42.6054" stroke="#4295F0" stroke-width="4" stroke-linecap="round" stroke-linejoin="round"/>
<mask id="path-12-outside-1_954_37782" maskUnits="userSpaceOnUse" x="76" y="172" width="27" height="31" fill="black">
<rect fill="white" x="76" y="172" width="27" height="31"/>
<path fill-rule="evenodd" clip-rule="evenodd" d="M89.5 201.846C89.5 201.846 77 196.077 77 184.538C77 177.808 82.8143 173 89.5 173C96.1856 173 102 178.288 102 184.538C102 196.077 89.5 201.846 89.5 201.846ZM89.4996 195.117C94.81 195.117 99.115 190.812 99.115 185.502C99.115 180.192 94.81 175.887 89.4996 175.887C84.1892 175.887 79.8843 180.192 79.8843 185.502C79.8843 190.812 84.1892 195.117 89.4996 195.117Z"/>
</mask>
<path fill-rule="evenodd" clip-rule="evenodd" d="M89.5 201.846C89.5 201.846 77 196.077 77 184.538C77 177.808 82.8143 173 89.5 173C96.1856 173 102 178.288 102 184.538C102 196.077 89.5 201.846 89.5 201.846ZM89.4996 195.117C94.81 195.117 99.115 190.812 99.115 185.502C99.115 180.192 94.81 175.887 89.4996 175.887C84.1892 175.887 79.8843 180.192 79.8843 185.502C79.8843 190.812 84.1892 195.117 89.4996 195.117Z" fill="#FCECDE"/>
<path d="M89.5 201.846L89.0809 202.754C89.3468 202.877 89.6531 202.877 89.919 202.754L89.5 201.846ZM76 184.538C76 190.697 79.3396 195.27 82.5717 198.254C84.1932 199.751 85.8109 200.87 87.0227 201.616C87.6296 201.989 88.1373 202.271 88.4963 202.46C88.6759 202.555 88.8185 202.627 88.9179 202.676C88.9676 202.7 89.0066 202.719 89.034 202.732C89.0477 202.738 89.0585 202.744 89.0664 202.747C89.0703 202.749 89.0735 202.751 89.0759 202.752C89.0771 202.752 89.0781 202.753 89.079 202.753C89.0794 202.753 89.0799 202.754 89.0801 202.754C89.0805 202.754 89.0809 202.754 89.5 201.846C89.919 200.938 89.9193 200.938 89.9195 200.938C89.9196 200.938 89.9198 200.938 89.9198 200.938C89.9199 200.938 89.9197 200.938 89.9194 200.938C89.9188 200.938 89.9175 200.937 89.9154 200.936C89.9112 200.934 89.9041 200.931 89.8942 200.926C89.8743 200.917 89.8431 200.902 89.8013 200.881C89.7176 200.84 89.5916 200.777 89.4294 200.691C89.1048 200.52 88.6359 200.26 88.0709 199.913C86.939 199.216 85.4318 198.172 83.9283 196.784C80.9103 193.999 78 189.918 78 184.538H76ZM89.5 172C82.372 172 76 177.152 76 184.538H78C78 178.464 83.2567 174 89.5 174V172ZM103 184.538C103 177.658 96.6564 172 89.5 172V174C95.7147 174 101 178.919 101 184.538H103ZM89.5 201.846C89.919 202.754 89.9194 202.754 89.9198 202.754C89.92 202.754 89.9205 202.753 89.9209 202.753C89.9218 202.753 89.9228 202.752 89.924 202.752C89.9264 202.751 89.9296 202.749 89.9335 202.747C89.9414 202.744 89.9522 202.738 89.9659 202.732C89.9933 202.719 90.0323 202.7 90.082 202.676C90.1815 202.627 90.324 202.555 90.5036 202.46C90.8626 202.271 91.3703 201.989 91.9772 201.616C93.189 200.87 94.8067 199.751 96.4282 198.254C99.6603 195.27 103 190.697 103 184.538H101C101 189.918 98.0896 193.999 95.0716 196.784C93.5681 198.172 92.0609 199.216 90.929 199.913C90.364 200.26 89.8951 200.52 89.5705 200.691C89.4083 200.777 89.2823 200.84 89.1986 200.881C89.1568 200.902 89.1256 200.917 89.1057 200.926C89.0958 200.931 89.0887 200.934 89.0845 200.936C89.0824 200.937 89.0811 200.938 89.0805 200.938C89.0802 200.938 89.08 200.938 89.0801 200.938C89.0801 200.938 89.0803 200.938 89.0804 200.938C89.0806 200.938 89.0809 200.938 89.5 201.846ZM98.115 185.502C98.115 190.26 94.2577 194.117 89.4996 194.117V196.117C95.3623 196.117 100.115 191.365 100.115 185.502H98.115ZM89.4996 176.887C94.2577 176.887 98.115 180.744 98.115 185.502H100.115C100.115 179.639 95.3623 174.887 89.4996 174.887V176.887ZM80.8843 185.502C80.8843 180.744 84.7415 176.887 89.4996 176.887V174.887C83.6369 174.887 78.8843 179.639 78.8843 185.502H80.8843ZM89.4996 194.117C84.7415 194.117 80.8843 190.26 80.8843 185.502H78.8843C78.8843 191.365 83.6369 196.117 89.4996 196.117V194.117Z" fill="#4295F0" mask="url(#path-12-outside-1_954_37782)"/>
<mask id="path-14-outside-2_954_37782" maskUnits="userSpaceOnUse" x="129" y="56" width="22" height="26" fill="black">
<rect fill="white" x="129" y="56" width="22" height="26"/>
<path fill-rule="evenodd" clip-rule="evenodd" d="M140 80.0766C140 80.0766 130 75.4613 130 66.2306C130 60.8461 134.651 57 140 57C145.348 57 150 61.2307 150 66.2306C150 75.4613 140 80.0766 140 80.0766ZM140 74.6941C144.248 74.6941 147.692 71.2501 147.692 67.0019C147.692 62.7536 144.248 59.3097 140 59.3097C135.751 59.3097 132.307 62.7536 132.307 67.0019C132.307 71.2501 135.751 74.6941 140 74.6941Z"/>
</mask>
<path fill-rule="evenodd" clip-rule="evenodd" d="M140 80.0766C140 80.0766 130 75.4613 130 66.2306C130 60.8461 134.651 57 140 57C145.348 57 150 61.2307 150 66.2306C150 75.4613 140 80.0766 140 80.0766ZM140 74.6941C144.248 74.6941 147.692 71.2501 147.692 67.0019C147.692 62.7536 144.248 59.3097 140 59.3097C135.751 59.3097 132.307 62.7536 132.307 67.0019C132.307 71.2501 135.751 74.6941 140 74.6941Z" fill="#FCECDE"/>
<path d="M140 80.0766L139.581 80.9845C139.847 81.1073 140.153 81.1073 140.419 80.9845L140 80.0766ZM129 66.2306C129 71.2351 131.715 74.9434 134.322 77.3499C135.631 78.5582 136.936 79.4614 137.913 80.0629C138.403 80.3642 138.813 80.5914 139.104 80.7447C139.249 80.8214 139.365 80.8797 139.446 80.9197C139.486 80.9396 139.518 80.955 139.541 80.9658C139.552 80.9712 139.561 80.9755 139.568 80.9786C139.571 80.9802 139.574 80.9815 139.576 80.9824C139.577 80.9829 139.578 80.9834 139.579 80.9837C139.579 80.9839 139.58 80.9841 139.58 80.9842C139.58 80.9844 139.581 80.9845 140 80.0766C140.419 79.1686 140.419 79.1688 140.419 79.1689C140.42 79.1689 140.42 79.169 140.42 79.169C140.42 79.1691 140.42 79.1691 140.42 79.169C140.42 79.1689 140.419 79.1685 140.417 79.1678C140.414 79.1664 140.409 79.1639 140.401 79.1603C140.386 79.1531 140.362 79.1414 140.329 79.1253C140.264 79.0932 140.165 79.0433 140.037 78.9757C139.78 78.8406 139.409 78.6351 138.961 78.3596C138.064 77.8072 136.869 76.9797 135.678 75.8803C133.285 73.6715 131 70.4568 131 66.2306H129ZM140 56C134.209 56 129 60.1899 129 66.2306H131C131 61.5023 135.094 58 140 58V56ZM151 66.2306C151 60.6004 145.819 56 140 56V58C144.877 58 149 61.861 149 66.2306H151ZM140 80.0766C140.419 80.9845 140.419 80.9844 140.42 80.9842C140.42 80.9841 140.42 80.9839 140.421 80.9837C140.421 80.9834 140.422 80.9829 140.423 80.9824C140.426 80.9815 140.428 80.9802 140.432 80.9786C140.438 80.9755 140.447 80.9712 140.459 80.9658C140.481 80.955 140.513 80.9396 140.554 80.9197C140.635 80.8797 140.751 80.8214 140.896 80.7447C141.187 80.5914 141.597 80.3642 142.086 80.0629C143.064 79.4614 144.369 78.5582 145.678 77.3499C148.285 74.9434 151 71.2351 151 66.2306H149C149 70.4568 146.714 73.6715 144.321 75.8803C143.13 76.9797 141.936 77.8072 141.038 78.3596C140.59 78.6351 140.219 78.8406 139.963 78.9757C139.835 79.0433 139.736 79.0932 139.67 79.1253C139.638 79.1414 139.614 79.1531 139.598 79.1603C139.591 79.1639 139.586 79.1664 139.583 79.1678C139.581 79.1685 139.58 79.1689 139.58 79.169C139.58 79.1691 139.58 79.1691 139.58 79.169C139.58 79.169 139.58 79.1689 139.58 79.1689C139.58 79.1688 139.581 79.1686 140 80.0766ZM146.692 67.0019C146.692 70.6979 143.696 73.6941 140 73.6941V75.6941C144.8 75.6941 148.692 71.8024 148.692 67.0019H146.692ZM140 60.3097C143.696 60.3097 146.692 63.3059 146.692 67.0019H148.692C148.692 62.2013 144.8 58.3097 140 58.3097V60.3097ZM133.307 67.0019C133.307 63.3059 136.304 60.3097 140 60.3097V58.3097C135.199 58.3097 131.307 62.2013 131.307 67.0019H133.307ZM140 73.6941C136.304 73.6941 133.307 70.6979 133.307 67.0019H131.307C131.307 71.8024 135.199 75.6941 140 75.6941V73.6941Z" fill="#4295F0" mask="url(#path-14-outside-2_954_37782)"/>
<mask id="path-16-outside-3_954_37782" maskUnits="userSpaceOnUse" x="211" y="117" width="20" height="22" fill="black">
<rect fill="white" x="211" y="117" width="20" height="22"/>
<path fill-rule="evenodd" clip-rule="evenodd" d="M220.6 137.846C220.6 137.846 212 133.877 212 125.938C212 121.308 216 118 220.6 118C225.2 118 229.2 121.638 229.2 125.938C229.2 133.877 220.6 137.846 220.6 137.846ZM220.6 133.217C224.253 133.217 227.215 130.255 227.215 126.601C227.215 122.948 224.253 119.986 220.6 119.986C216.946 119.986 213.984 122.948 213.984 126.601C213.984 130.255 216.946 133.217 220.6 133.217Z"/>
</mask>
<path fill-rule="evenodd" clip-rule="evenodd" d="M220.6 137.846C220.6 137.846 212 133.877 212 125.938C212 121.308 216 118 220.6 118C225.2 118 229.2 121.638 229.2 125.938C229.2 133.877 220.6 137.846 220.6 137.846ZM220.6 133.217C224.253 133.217 227.215 130.255 227.215 126.601C227.215 122.948 224.253 119.986 220.6 119.986C216.946 119.986 213.984 122.948 213.984 126.601C213.984 130.255 216.946 133.217 220.6 133.217Z" fill="#FCECDE"/>
<path d="M220.6 137.846L220.181 138.754C220.447 138.877 220.753 138.877 221.019 138.754L220.6 137.846ZM211 125.938C211 130.297 213.365 133.52 215.622 135.604C216.756 136.651 217.886 137.433 218.732 137.953C219.156 138.214 219.512 138.411 219.764 138.544C219.89 138.611 219.991 138.662 220.062 138.697C220.097 138.714 220.125 138.728 220.145 138.737C220.155 138.742 220.163 138.746 220.169 138.749C220.172 138.75 220.175 138.751 220.177 138.752C220.178 138.752 220.178 138.753 220.179 138.753C220.18 138.753 220.18 138.754 220.18 138.754C220.181 138.754 220.181 138.754 220.6 137.846C221.019 136.938 221.019 136.938 221.02 136.938C221.02 136.938 221.02 136.938 221.02 136.939C221.02 136.939 221.02 136.939 221.02 136.939C221.02 136.939 221.019 136.938 221.018 136.938C221.016 136.937 221.012 136.935 221.005 136.932C220.993 136.926 220.973 136.916 220.945 136.902C220.89 136.875 220.806 136.833 220.697 136.775C220.479 136.661 220.162 136.485 219.78 136.25C219.014 135.779 217.994 135.072 216.978 134.134C214.935 132.249 213 129.518 213 125.938H211ZM220.6 117C215.558 117 211 120.652 211 125.938H213C213 121.964 216.443 119 220.6 119V117ZM230.2 125.938C230.2 121.008 225.671 117 220.6 117V119C224.729 119 228.2 122.269 228.2 125.938H230.2ZM220.6 137.846C221.019 138.754 221.019 138.754 221.02 138.754C221.02 138.754 221.02 138.753 221.021 138.753C221.021 138.753 221.022 138.752 221.023 138.752C221.025 138.751 221.028 138.75 221.031 138.749C221.037 138.746 221.045 138.742 221.055 138.737C221.075 138.728 221.103 138.714 221.138 138.697C221.209 138.662 221.31 138.611 221.436 138.544C221.688 138.411 222.044 138.214 222.468 137.953C223.314 137.433 224.444 136.651 225.578 135.604C227.835 133.52 230.2 130.297 230.2 125.938H228.2C228.2 129.518 226.265 132.249 224.222 134.134C223.206 135.072 222.186 135.779 221.42 136.25C221.037 136.485 220.721 136.661 220.503 136.775C220.394 136.833 220.31 136.875 220.255 136.902C220.227 136.916 220.207 136.926 220.195 136.932C220.188 136.935 220.184 136.937 220.182 136.938C220.181 136.938 220.18 136.939 220.18 136.939C220.18 136.939 220.18 136.939 220.18 136.939C220.18 136.938 220.18 136.938 220.18 136.938C220.181 136.938 220.181 136.938 220.6 137.846ZM226.215 126.601C226.215 129.703 223.701 132.217 220.6 132.217V134.217C224.806 134.217 228.215 130.807 228.215 126.601H226.215ZM220.6 120.986C223.701 120.986 226.215 123.5 226.215 126.601H228.215C228.215 122.396 224.806 118.986 220.6 118.986V120.986ZM214.984 126.601C214.984 123.5 217.498 120.986 220.6 120.986V118.986C216.394 118.986 212.984 122.396 212.984 126.601H214.984ZM220.6 132.217C217.498 132.217 214.984 129.703 214.984 126.601H212.984C212.984 130.807 216.394 134.217 220.6 134.217V132.217Z" fill="#4295F0" mask="url(#path-16-outside-3_954_37782)"/>
<mask id="path-18-outside-4_954_37782" maskUnits="userSpaceOnUse" x="242" y="15" width="14" height="15" fill="black">
<rect fill="white" x="242" y="15" width="14" height="15"/>
<path fill-rule="evenodd" clip-rule="evenodd" d="M248.567 28.846C248.567 28.846 243 26.2768 243 21.1384C243 18.141 245.589 16 248.567 16C251.544 16 254.133 18.3551 254.133 21.1384C254.133 26.2768 248.567 28.846 248.567 28.846ZM248.566 25.8497C250.931 25.8497 252.848 23.9326 252.848 21.5677C252.848 19.2028 250.931 17.2857 248.566 17.2857C246.202 17.2857 244.284 19.2028 244.284 21.5677C244.284 23.9326 246.202 25.8497 248.566 25.8497Z"/>
</mask>
<path fill-rule="evenodd" clip-rule="evenodd" d="M248.567 28.846C248.567 28.846 243 26.2768 243 21.1384C243 18.141 245.589 16 248.567 16C251.544 16 254.133 18.3551 254.133 21.1384C254.133 26.2768 248.567 28.846 248.567 28.846ZM248.566 25.8497C250.931 25.8497 252.848 23.9326 252.848 21.5677C252.848 19.2028 250.931 17.2857 248.566 17.2857C246.202 17.2857 244.284 19.2028 244.284 21.5677C244.284 23.9326 246.202 25.8497 248.566 25.8497Z" fill="#FCECDE"/>
<path d="M248.567 28.846L248.148 29.754C248.413 29.8767 248.72 29.8767 248.986 29.754L248.567 28.846ZM242 21.1384C242 24.0968 243.606 26.2705 245.105 27.6539C245.86 28.3507 246.611 28.8703 247.173 29.216C247.455 29.3894 247.691 29.5207 247.861 29.6101C247.946 29.6548 248.014 29.6892 248.062 29.7131C248.087 29.7251 248.106 29.7345 248.121 29.7413C248.128 29.7447 248.134 29.7475 248.138 29.7496C248.14 29.7506 248.142 29.7515 248.144 29.7523C248.145 29.7526 248.145 29.753 248.146 29.7533C248.146 29.7534 248.147 29.7536 248.147 29.7537C248.147 29.7538 248.148 29.754 248.567 28.846C248.986 27.9381 248.986 27.9382 248.986 27.9384C248.986 27.9384 248.987 27.9385 248.987 27.9386C248.987 27.9387 248.987 27.9388 248.987 27.9389C248.988 27.939 248.988 27.9389 248.987 27.9387C248.986 27.9383 248.984 27.9373 248.981 27.9357C248.974 27.9325 248.962 27.9269 248.946 27.9188C248.913 27.9026 248.861 27.8767 248.794 27.8411C248.659 27.7699 248.461 27.6603 248.221 27.5127C247.739 27.2161 247.098 26.7722 246.462 26.1843C245.177 24.9986 244 23.3184 244 21.1384H242ZM248.567 15C245.147 15 242 17.4849 242 21.1384H244C244 18.7972 246.032 17 248.567 17V15ZM255.133 21.1384C255.133 17.7248 252.015 15 248.567 15V17C251.073 17 253.133 18.9854 253.133 21.1384H255.133ZM248.567 28.846C248.986 29.754 248.986 29.7538 248.986 29.7537C248.987 29.7536 248.987 29.7534 248.987 29.7533C248.988 29.753 248.989 29.7526 248.989 29.7523C248.991 29.7515 248.993 29.7506 248.995 29.7496C249 29.7475 249.006 29.7447 249.013 29.7413C249.027 29.7345 249.046 29.7251 249.071 29.7131C249.119 29.6892 249.188 29.6548 249.272 29.6101C249.442 29.5207 249.679 29.3894 249.96 29.216C250.522 28.8703 251.273 28.3507 252.028 27.6539C253.527 26.2705 255.133 24.0968 255.133 21.1384H253.133C253.133 23.3184 251.956 24.9986 250.672 26.1843C250.035 26.7722 249.394 27.2161 248.912 27.5127C248.672 27.6603 248.474 27.7699 248.339 27.8411C248.272 27.8767 248.22 27.9026 248.187 27.9188C248.171 27.9269 248.159 27.9325 248.152 27.9357C248.149 27.9373 248.147 27.9383 248.146 27.9387C248.146 27.9389 248.146 27.939 248.146 27.9389C248.146 27.9388 248.146 27.9387 248.146 27.9386C248.147 27.9385 248.147 27.9384 248.147 27.9384C248.147 27.9382 248.148 27.9381 248.567 28.846ZM251.848 21.5677C251.848 23.3803 250.379 24.8497 248.566 24.8497V26.8497C251.484 26.8497 253.848 24.4849 253.848 21.5677H251.848ZM248.566 18.2857C250.379 18.2857 251.848 19.7551 251.848 21.5677H253.848C253.848 18.6506 251.484 16.2857 248.566 16.2857V18.2857ZM245.284 21.5677C245.284 19.7551 246.754 18.2857 248.566 18.2857V16.2857C245.649 16.2857 243.284 18.6506 243.284 21.5677H245.284ZM248.566 24.8497C246.754 24.8497 245.284 23.3803 245.284 21.5677H243.284C243.284 24.4849 245.649 26.8497 248.566 26.8497V24.8497Z" fill="#4295F0" mask="url(#path-18-outside-4_954_37782)"/>
<mask id="path-20-outside-5_954_37782" maskUnits="userSpaceOnUse" x="264" y="237" width="14" height="15" fill="black">
<rect fill="white" x="264" y="237" width="14" height="15"/>
<path fill-rule="evenodd" clip-rule="evenodd" d="M270.567 250.846C270.567 250.846 265 248.277 265 243.138C265 240.141 267.589 238 270.567 238C273.544 238 276.133 240.355 276.133 243.138C276.133 248.277 270.567 250.846 270.567 250.846ZM270.566 247.85C272.931 247.85 274.848 245.933 274.848 243.568C274.848 241.203 272.931 239.286 270.566 239.286C268.202 239.286 266.284 241.203 266.284 243.568C266.284 245.933 268.202 247.85 270.566 247.85Z"/>
</mask>
<path fill-rule="evenodd" clip-rule="evenodd" d="M270.567 250.846C270.567 250.846 265 248.277 265 243.138C265 240.141 267.589 238 270.567 238C273.544 238 276.133 240.355 276.133 243.138C276.133 248.277 270.567 250.846 270.567 250.846ZM270.566 247.85C272.931 247.85 274.848 245.933 274.848 243.568C274.848 241.203 272.931 239.286 270.566 239.286C268.202 239.286 266.284 241.203 266.284 243.568C266.284 245.933 268.202 247.85 270.566 247.85Z" fill="#FCECDE"/>
<path d="M270.567 250.846L270.148 251.754C270.413 251.877 270.72 251.877 270.986 251.754L270.567 250.846ZM264 243.138C264 246.097 265.606 248.27 267.105 249.654C267.86 250.351 268.611 250.87 269.173 251.216C269.455 251.389 269.691 251.521 269.861 251.61C269.946 251.655 270.014 251.689 270.062 251.713C270.087 251.725 270.106 251.734 270.121 251.741C270.128 251.745 270.134 251.747 270.138 251.75C270.14 251.751 270.142 251.752 270.144 251.752C270.145 251.753 270.145 251.753 270.146 251.753C270.146 251.753 270.147 251.754 270.147 251.754C270.147 251.754 270.148 251.754 270.567 250.846C270.986 249.938 270.986 249.938 270.986 249.938C270.986 249.938 270.987 249.939 270.987 249.939C270.987 249.939 270.987 249.939 270.987 249.939C270.988 249.939 270.988 249.939 270.987 249.939C270.986 249.938 270.984 249.937 270.981 249.936C270.974 249.933 270.962 249.927 270.946 249.919C270.913 249.903 270.861 249.877 270.794 249.841C270.659 249.77 270.461 249.66 270.221 249.513C269.739 249.216 269.098 248.772 268.462 248.184C267.177 246.999 266 245.318 266 243.138H264ZM270.567 237C267.147 237 264 239.485 264 243.138H266C266 240.797 268.032 239 270.567 239V237ZM277.133 243.138C277.133 239.725 274.015 237 270.567 237V239C273.073 239 275.133 240.985 275.133 243.138H277.133ZM270.567 250.846C270.986 251.754 270.986 251.754 270.986 251.754C270.987 251.754 270.987 251.753 270.987 251.753C270.988 251.753 270.989 251.753 270.989 251.752C270.991 251.752 270.993 251.751 270.995 251.75C271 251.747 271.006 251.745 271.013 251.741C271.027 251.734 271.046 251.725 271.071 251.713C271.119 251.689 271.188 251.655 271.272 251.61C271.442 251.521 271.679 251.389 271.96 251.216C272.522 250.87 273.273 250.351 274.028 249.654C275.527 248.27 277.133 246.097 277.133 243.138H275.133C275.133 245.318 273.956 246.999 272.672 248.184C272.035 248.772 271.394 249.216 270.912 249.513C270.672 249.66 270.474 249.77 270.339 249.841C270.272 249.877 270.22 249.903 270.187 249.919C270.171 249.927 270.159 249.933 270.152 249.936C270.149 249.937 270.147 249.938 270.146 249.939C270.146 249.939 270.146 249.939 270.146 249.939C270.146 249.939 270.146 249.939 270.146 249.939C270.147 249.939 270.147 249.938 270.147 249.938C270.147 249.938 270.148 249.938 270.567 250.846ZM273.848 243.568C273.848 245.38 272.379 246.85 270.566 246.85V248.85C273.484 248.85 275.848 246.485 275.848 243.568H273.848ZM270.566 240.286C272.379 240.286 273.848 241.755 273.848 243.568H275.848C275.848 240.651 273.484 238.286 270.566 238.286V240.286ZM267.284 243.568C267.284 241.755 268.754 240.286 270.566 240.286V238.286C267.649 238.286 265.284 240.651 265.284 243.568H267.284ZM270.566 246.85C268.754 246.85 267.284 245.38 267.284 243.568H265.284C265.284 246.485 267.649 248.85 270.566 248.85V246.85Z" fill="#4295F0" mask="url(#path-20-outside-5_954_37782)"/>
<g filter="url(#filter0_f_954_37782)">
<circle cx="-19.5" cy="135.5" r="164.5" fill="#4295F0"/>
</g>
</g>
<defs>
<filter id="filter0_f_954_37782" x="-334" y="-179" width="629" height="629" filterUnits="userSpaceOnUse" color-interpolation-filters="sRGB">
<feFlood flood-opacity="0" result="BackgroundImageFix"/>
<feBlend mode="normal" in="SourceGraphic" in2="BackgroundImageFix" result="shape"/>
<feGaussianBlur stdDeviation="75" result="effect1_foregroundBlur_954_37782"/>
</filter>
<clipPath id="clip0_954_37782">
<rect width="293" height="276" fill="white"/>
</clipPath>
</defs>
</svg>
